<svg width="140" height="140" viewBox="0 0 140 140" fill="none" xmlns="http://www.w3.org/2000/svg">
<path fill-rule="evenodd" clip-rule="evenodd" d="M69.9998 4.375C32.9363 4.375 2.9165 34.3948 2.9165 71.4583C2.9165 101.143 22.1191 126.215 48.7847 135.104C52.1389 135.691 53.3967 133.678 53.3967 131.917C53.3967 130.324 53.3129 125.041 53.3129 119.423C36.4582 122.526 32.0978 115.314 30.7561 111.541C30.0014 109.612 26.7311 103.658 23.88 102.065C21.5321 100.807 18.178 97.7047 23.7962 97.6208C29.079 97.537 32.8524 102.484 34.1103 104.497C40.1478 114.643 49.791 111.792 53.6483 110.031C54.2353 105.671 55.9962 102.736 57.9248 101.059C42.9988 99.3818 27.4019 93.5958 27.4019 67.9365C27.4019 60.6411 30.0014 54.6036 34.278 49.9078C33.6071 48.2307 31.2592 41.3547 34.9488 32.1307C34.9488 32.1307 40.567 30.3698 53.3967 39.0068C58.7634 37.4974 64.4655 36.7427 70.1675 36.7427C75.8696 36.7427 81.5717 37.4974 86.9384 39.0068C99.7681 30.2859 105.386 32.1307 105.386 32.1307C109.076 41.3547 106.728 48.2307 106.057 49.9078C110.334 54.6036 112.933 60.5573 112.933 67.9365C112.933 93.6797 97.2524 99.3818 82.3264 101.059C84.7582 103.155 86.8545 107.18 86.8545 113.469C86.8545 122.442 86.7707 129.653 86.7707 131.917C86.7707 133.678 88.0285 135.774 91.3826 135.104C117.881 126.215 137.083 101.059 137.083 71.4583C137.083 34.3948 107.063 4.375 69.9998 4.375Z" fill="white"/>
</svg>
