<svg width="72" height="72" viewBox="0 0 72 72" fill="none" xmlns="http://www.w3.org/2000/svg">
<mask id="path-1-inside-1_38_160" fill="white">
<rect width="72" height="72" rx="3"/>
</mask>
<rect width="72" height="72" rx="3" stroke="white" stroke-width="8" mask="url(#path-1-inside-1_38_160)"/>
<path d="M14.25 5.625C10.7292 5.625 7.875 8.47918 7.875 12C7.875 15.5208 10.7292 18.375 14.25 18.375C17.7708 18.375 20.625 15.5208 20.625 12C20.625 8.47918 17.7708 5.625 14.25 5.625Z" fill="white"/>
<path d="M8.25 23.625C8.04289 23.625 7.875 23.7929 7.875 24V63C7.875 63.2071 8.04289 63.375 8.25 63.375H20.25C20.4571 63.375 20.625 63.2071 20.625 63V24C20.625 23.7929 20.4571 23.625 20.25 23.625H8.25Z" fill="white"/>
<path d="M27.75 23.625C27.5429 23.625 27.375 23.7929 27.375 24V63C27.375 63.2071 27.5429 63.375 27.75 63.375H39.75C39.9571 63.375 40.125 63.2071 40.125 63V42C40.125 40.5082 40.7176 39.0774 41.7725 38.0225C42.8274 36.9676 44.2582 36.375 45.75 36.375C47.2418 36.375 48.6726 36.9676 49.7275 38.0225C50.7824 39.0774 51.375 40.5082 51.375 42V63C51.375 63.2071 51.5429 63.375 51.75 63.375H63.75C63.9571 63.375 64.125 63.2071 64.125 63V37.1407C64.125 29.8605 57.7932 24.165 50.5495 24.8235C48.3156 25.0266 46.1069 25.5819 44.0444 26.4658L40.125 28.1456V24C40.125 23.7929 39.9571 23.625 39.75 23.625H27.75Z" fill="white"/>
</svg>
