<svg width="90" height="30" viewBox="0 0 94 41" fill="none" xmlns="http://www.w3.org/2000/svg">
<g filter="url(#filter0_d_2_2336)">
<path d="M58.5508 5.15625C58.5234 5.36133 58.4346 5.52539 58.2842 5.64844C58.1338 5.77148 57.9629 5.83301 57.7715 5.83301C57.7441 5.83301 57.6963 5.83301 57.6279 5.83301C57.5596 5.81934 57.4023 5.8125 57.1562 5.8125C56.8965 5.8125 56.5615 5.83984 56.1514 5.89453C55.7549 5.94922 55.3105 6.06543 54.8184 6.24316C54.3398 6.40723 53.834 6.65332 53.3008 6.98145C52.7812 7.30957 52.2686 7.75391 51.7627 8.31445C51.2568 8.86133 50.7783 9.54492 50.3271 10.3652C49.876 11.1719 49.4932 12.1494 49.1787 13.2979C49.0146 13.8721 48.8232 14.6992 48.6045 15.7793C48.3994 16.8457 48.1738 18.0488 47.9277 19.3887C47.6953 20.7285 47.4561 22.1572 47.21 23.6748C46.9775 25.1924 46.752 26.6826 46.5332 28.1455C46.3281 29.6084 46.1367 31.0029 45.959 32.3291C45.7812 33.6416 45.6445 34.7695 45.5488 35.7129C45.5215 35.8906 45.4395 36.0479 45.3027 36.1846C45.1797 36.335 45.0225 36.4102 44.8311 36.4102C44.6396 36.4102 44.4688 36.3623 44.3184 36.2666C44.1816 36.1709 44.0859 36.0273 44.0312 35.8359C43.8535 35.1797 43.5732 34.2705 43.1904 33.1084C42.8076 31.9463 42.3633 30.6406 41.8574 29.1914C41.3652 27.7285 40.8252 26.1768 40.2373 24.5361C39.6494 22.8955 39.0615 21.2754 38.4736 19.6758C37.8994 18.0625 37.3389 16.5244 36.792 15.0615C36.2588 13.585 35.7871 12.2861 35.377 11.165C35.3086 11.9307 35.1992 12.7852 35.0488 13.7285C34.9121 14.6582 34.7207 15.6631 34.4746 16.7432C34.2422 17.8096 33.9482 18.9443 33.5928 20.1475C33.2373 21.3369 32.8135 22.5742 32.3213 23.8594C31.5557 25.8281 30.6533 27.5098 29.6143 28.9043C28.5889 30.2988 27.5088 31.4609 26.374 32.3906C25.2393 33.3203 24.084 34.0586 22.9082 34.6055C21.7461 35.1387 20.6523 35.542 19.627 35.8154C18.6016 36.0889 17.6787 36.2598 16.8584 36.3281C16.0381 36.4102 15.4092 36.4512 14.9717 36.4512C13.4678 36.4512 12.0801 36.2529 10.8086 35.8564C9.55078 35.46 8.45703 34.8994 7.52734 34.1748C6.61133 33.4365 5.89355 32.5615 5.37402 31.5498C4.86816 30.5244 4.61523 29.3965 4.61523 28.166C4.61523 27.0586 4.86133 26.0264 5.35352 25.0693C5.85938 24.0986 6.5293 23.2578 7.36328 22.5469C8.21094 21.8359 9.1748 21.2754 10.2549 20.8652C11.3486 20.4551 12.4834 20.25 13.6592 20.25C14.6299 20.25 15.498 20.3457 16.2637 20.5371C17.043 20.7285 17.7266 20.9746 18.3145 21.2754C18.916 21.5625 19.4287 21.877 19.8525 22.2188C20.29 22.5605 20.6455 22.8887 20.9189 23.2031C21.2061 23.5039 21.418 23.7637 21.5547 23.9824C21.7051 24.2012 21.7939 24.3311 21.8213 24.3721C21.876 24.4814 21.9033 24.6045 21.9033 24.7412C21.9033 24.9326 21.8281 25.1104 21.6777 25.2744C21.541 25.4385 21.3564 25.5205 21.124 25.5205C20.8232 25.5205 20.5977 25.3838 20.4473 25.1104C20.4336 25.0693 20.2969 24.8779 20.0371 24.5361C19.791 24.1807 19.4014 23.7979 18.8682 23.3877C18.3486 22.9775 17.6719 22.6084 16.8379 22.2803C16.0039 21.9385 14.9922 21.7676 13.8027 21.7676C12.832 21.7676 11.8818 21.9316 10.9521 22.2598C10.0361 22.5879 9.22266 23.0391 8.51172 23.6133C7.80078 24.1875 7.22656 24.8711 6.78906 25.6641C6.36523 26.4434 6.15332 27.291 6.15332 28.207C6.15332 29.2051 6.38574 30.1211 6.85059 30.9551C7.31543 31.7754 7.94434 32.4795 8.7373 33.0674C9.54395 33.6553 10.4736 34.1133 11.5264 34.4414C12.5928 34.7559 13.7275 34.9131 14.9307 34.9131C15.3955 34.9131 16.0107 34.8789 16.7764 34.8105C17.542 34.7422 18.3965 34.585 19.3398 34.3389C20.2969 34.0928 21.3018 33.7236 22.3545 33.2314C23.4072 32.7256 24.4463 32.042 25.4717 31.1807C26.4971 30.3193 27.4746 29.2461 28.4043 27.9609C29.3477 26.6758 30.1748 25.1172 30.8857 23.2852C31.624 21.3984 32.1982 19.6074 32.6084 17.9121C33.0322 16.2031 33.3467 14.665 33.5518 13.2979C33.7568 11.9307 33.8799 10.7686 33.9209 9.81152C33.9756 8.84082 34.0029 8.15039 34.0029 7.74023V7.33008C34.0029 7.11133 34.0713 6.92676 34.208 6.77637C34.3584 6.6123 34.5498 6.53027 34.7822 6.53027C35.124 6.53027 35.3633 6.70117 35.5 7.04297C35.541 7.13867 35.6572 7.45996 35.8486 8.00684C36.0537 8.55371 36.3135 9.26465 36.6279 10.1396C36.9561 11.001 37.3252 11.999 37.7354 13.1338C38.1592 14.2686 38.6035 15.4785 39.0684 16.7637C39.5332 18.0352 40.0117 19.3545 40.5039 20.7217C40.9961 22.0889 41.4746 23.4355 41.9395 24.7617C42.418 26.0879 42.8691 27.3662 43.293 28.5967C43.7168 29.8271 44.0996 30.9482 44.4414 31.96C44.5918 30.8662 44.7559 29.7109 44.9336 28.4941C45.1113 27.2637 45.2959 26.0264 45.4873 24.7822C45.6924 23.5244 45.8906 22.2939 46.082 21.0908C46.2871 19.8877 46.4854 18.7598 46.6768 17.707C46.8818 16.6543 47.0664 15.7109 47.2305 14.877C47.3945 14.043 47.5449 13.373 47.6816 12.8672C47.9824 11.6641 48.4131 10.543 48.9736 9.50391C49.5342 8.45117 50.2109 7.53516 51.0039 6.75586C51.8105 5.97656 52.7266 5.36816 53.752 4.93066C54.791 4.47949 55.9395 4.25391 57.1973 4.25391C57.6758 4.25391 58.0176 4.30859 58.2227 4.41797C58.4414 4.52734 58.5508 4.73926 58.5508 5.05371V5.15625ZM55.4951 19.9014C55.4951 20.4209 55.3105 20.8652 54.9414 21.2344C54.5859 21.5898 54.1484 21.7676 53.6289 21.7676C53.1094 21.7676 52.665 21.5898 52.2959 21.2344C51.9404 20.8652 51.7627 20.4209 51.7627 19.9014C51.7627 19.6416 51.8105 19.4023 51.9062 19.1836C52.002 18.9512 52.1318 18.7529 52.2959 18.5889C52.4736 18.4111 52.6719 18.2744 52.8906 18.1787C53.123 18.083 53.3691 18.0352 53.6289 18.0352C53.8887 18.0352 54.1279 18.083 54.3467 18.1787C54.5791 18.2744 54.7773 18.4111 54.9414 18.5889C55.1191 18.7529 55.2559 18.9512 55.3516 19.1836C55.4473 19.4023 55.4951 19.6416 55.4951 19.9014ZM52.1729 31.9189C52.1729 29.9502 52.2959 27.9883 52.542 26.0332C52.5693 25.8418 52.6514 25.6777 52.7881 25.541C52.9385 25.3906 53.1299 25.3154 53.3623 25.3154C53.5674 25.3154 53.7383 25.3975 53.875 25.5615C54.0117 25.7119 54.0801 25.8896 54.0801 26.0947C54.0801 26.1768 54.0596 26.4229 54.0186 26.833C53.9912 27.2432 53.9502 27.7354 53.8955 28.3096C53.8545 28.8701 53.8135 29.4717 53.7725 30.1143C53.7451 30.7432 53.7314 31.3242 53.7314 31.8574C53.7314 32.582 53.7998 33.1699 53.9365 33.6211C54.0869 34.0586 54.2715 34.4004 54.4902 34.6465C54.7227 34.8926 54.9619 35.0566 55.208 35.1387C55.4678 35.2207 55.7139 35.2617 55.9463 35.2617C56.3291 35.2617 56.7256 35.125 57.1357 34.8516C57.5459 34.5781 57.9629 34.1953 58.3867 33.7031C58.8242 33.2109 59.2617 32.623 59.6992 31.9395C60.1367 31.2422 60.5674 30.4697 60.9912 29.6221C61.0596 29.4854 61.1553 29.3828 61.2783 29.3145C61.4014 29.2324 61.5381 29.1914 61.6885 29.1914C61.9072 29.1914 62.085 29.2734 62.2217 29.4375C62.3721 29.6016 62.4473 29.7793 62.4473 29.9707C62.4473 30.1074 62.4199 30.2236 62.3652 30.3193C62.2012 30.6338 61.9961 31.0166 61.75 31.4678C61.5039 31.9189 61.2236 32.3838 60.9092 32.8623C60.5947 33.3408 60.2461 33.8193 59.8633 34.2979C59.4941 34.7627 59.0977 35.1865 58.6738 35.5693C58.25 35.9385 57.8057 36.2393 57.3408 36.4717C56.876 36.7041 56.4043 36.8203 55.9258 36.8203C55.3105 36.8203 54.7705 36.6904 54.3057 36.4307C53.8408 36.1709 53.4443 35.8223 53.1162 35.3848C52.8018 34.9473 52.5625 34.4346 52.3984 33.8467C52.248 33.2451 52.1729 32.6025 52.1729 31.9189ZM54.3467 19.9014C54.3467 19.71 54.2715 19.5459 54.1211 19.4092C53.9844 19.2588 53.8203 19.1836 53.6289 19.1836C53.4375 19.1836 53.2734 19.2588 53.1367 19.4092C53 19.5459 52.9316 19.71 52.9316 19.9014C52.9316 20.0928 53 20.2568 53.1367 20.3936C53.2734 20.5303 53.4375 20.5986 53.6289 20.5986C53.8203 20.5986 53.9844 20.5303 54.1211 20.3936C54.2715 20.2568 54.3467 20.0928 54.3467 19.9014ZM65.708 34.1748C65.9131 33.7646 66.1729 33.2588 66.4873 32.6572C66.8154 32.042 67.1504 31.4268 67.4922 30.8115C67.8477 30.1963 68.1895 29.6152 68.5176 29.0684C68.8594 28.5215 69.1465 28.1045 69.3789 27.8174C69.7754 27.3389 70.1855 26.9971 70.6094 26.792C71.0332 26.5869 71.4229 26.4844 71.7783 26.4844C72.1338 26.4844 72.4346 26.5596 72.6807 26.71C72.9404 26.8604 73.1523 27.0654 73.3164 27.3252C73.4805 27.5713 73.6035 27.8652 73.6855 28.207C73.7676 28.5352 73.8086 28.8906 73.8086 29.2734C73.8086 29.4922 73.7949 29.7793 73.7676 30.1348C73.7539 30.4902 73.7334 30.873 73.7061 31.2832C73.6924 31.6934 73.6719 32.1172 73.6445 32.5547C73.6309 32.9922 73.6172 33.4023 73.6035 33.7852C73.8086 33.375 74.041 32.9238 74.3008 32.4316C74.5605 31.9258 74.8203 31.4268 75.0801 30.9346C75.3535 30.4424 75.6133 29.9844 75.8594 29.5605C76.1055 29.123 76.3311 28.7676 76.5361 28.4941C77.124 27.6875 77.6709 27.1475 78.1768 26.874C78.6963 26.6006 79.1543 26.4639 79.5508 26.4639C80.0156 26.4639 80.3984 26.5527 80.6992 26.7305C81 26.8945 81.2324 27.1133 81.3965 27.3867C81.5742 27.6465 81.6973 27.9404 81.7656 28.2686C81.834 28.5967 81.8682 28.9111 81.8682 29.2119C81.8682 29.6768 81.834 30.1621 81.7656 30.668C81.6973 31.1738 81.6631 31.7754 81.6631 32.4727C81.6631 32.7598 81.6768 33.0469 81.7041 33.334C81.7314 33.6211 81.7861 33.874 81.8682 34.0928C81.9639 34.3115 82.1074 34.4893 82.2988 34.626C82.4902 34.7627 82.75 34.8311 83.0781 34.8311C83.4336 34.8311 83.7822 34.7422 84.124 34.5645C84.4658 34.373 84.7939 34.127 85.1084 33.8262C85.4229 33.5254 85.7168 33.1836 85.9902 32.8008C86.2773 32.418 86.5371 32.0352 86.7695 31.6523C87.002 31.2695 87.207 30.9072 87.3848 30.5654C87.5625 30.21 87.7061 29.9092 87.8154 29.6631C87.8838 29.5127 87.9795 29.3965 88.1025 29.3145C88.2256 29.2324 88.3623 29.1914 88.5127 29.1914C88.7451 29.1914 88.9297 29.2803 89.0664 29.458C89.2168 29.6221 89.292 29.7998 89.292 29.9912C89.292 30.0869 89.2715 30.1826 89.2305 30.2783C89.1758 30.3877 89.0664 30.6201 88.9023 30.9756C88.7383 31.3174 88.5195 31.7139 88.2461 32.165C87.9727 32.6025 87.6514 33.0674 87.2822 33.5596C86.9268 34.0518 86.5303 34.5098 86.0928 34.9336C85.6553 35.3438 85.1836 35.6855 84.6777 35.959C84.1719 36.2188 83.6387 36.3486 83.0781 36.3486C82.4766 36.3486 81.9844 36.2393 81.6016 36.0205C81.2324 35.8154 80.9316 35.5352 80.6992 35.1797C80.4805 34.8242 80.3301 34.4141 80.248 33.9492C80.166 33.4844 80.125 32.999 80.125 32.4932C80.125 31.8232 80.1592 31.208 80.2275 30.6475C80.2959 30.0732 80.3301 29.6289 80.3301 29.3145C80.3301 28.9727 80.2959 28.7129 80.2275 28.5352C80.1729 28.3574 80.0977 28.2344 80.002 28.166C79.9199 28.084 79.8379 28.043 79.7559 28.043C79.6738 28.0293 79.6123 28.0225 79.5713 28.0225C79.2432 28.0225 78.8945 28.207 78.5254 28.5762C78.1699 28.9316 77.8008 29.4102 77.418 30.0117C77.0352 30.6133 76.6387 31.2969 76.2285 32.0625C75.832 32.8281 75.4287 33.6074 75.0186 34.4004C74.7861 34.8379 74.5879 35.2002 74.4238 35.4873C74.2734 35.7744 74.123 36 73.9727 36.1641C73.8359 36.3281 73.6992 36.4443 73.5625 36.5127C73.4258 36.5811 73.2754 36.6152 73.1113 36.6152C72.7559 36.6152 72.4824 36.4922 72.291 36.2461C72.1133 36 72.0244 35.6787 72.0244 35.2822C72.0244 35.0771 72.0312 34.8037 72.0449 34.4619C72.0586 34.1201 72.0723 33.7441 72.0859 33.334C72.0996 32.9238 72.1201 32.5 72.1475 32.0625C72.1748 31.625 72.1953 31.208 72.209 30.8115C72.2227 30.4014 72.2363 30.0391 72.25 29.7246C72.2637 29.4102 72.2705 29.1709 72.2705 29.0068C72.2705 28.6514 72.209 28.3984 72.0859 28.248C71.9629 28.084 71.8193 28.002 71.6553 28.002C71.5049 28.002 71.334 28.0566 71.1426 28.166C70.9648 28.2754 70.7529 28.4873 70.5068 28.8018C70.3154 29.0479 70.0693 29.4102 69.7686 29.8887C69.4814 30.3535 69.1738 30.873 68.8457 31.4473C68.5176 32.0215 68.1895 32.6094 67.8613 33.2109C67.5469 33.8125 67.2734 34.3525 67.041 34.8311C66.7539 35.4053 66.4668 35.7949 66.1797 36C65.8926 36.2188 65.6123 36.3281 65.3389 36.3281C64.9424 36.3281 64.6484 36.2119 64.457 35.9795C64.2656 35.7334 64.1699 35.4121 64.1699 35.0156C64.1699 34.9746 64.1768 34.7285 64.1904 34.2773C64.2178 33.8262 64.2451 33.2793 64.2725 32.6367C64.2998 31.9805 64.3271 31.2832 64.3545 30.5449C64.3955 29.8066 64.4297 29.1162 64.457 28.4736C64.4707 28.1318 64.457 27.8174 64.416 27.5303C64.375 27.2432 64.3203 27.0723 64.252 27.0176C64.1426 27.0449 63.9238 27.2979 63.5957 27.7764C63.2812 28.2549 62.8779 29.0889 62.3857 30.2783C62.3174 30.4287 62.2148 30.5449 62.0781 30.627C61.9414 30.709 61.7979 30.75 61.6475 30.75C61.415 30.75 61.2305 30.6748 61.0938 30.5244C60.957 30.3604 60.8887 30.1758 60.8887 29.9707C60.8887 29.875 60.9092 29.7725 60.9502 29.6631C61.5654 28.2002 62.1533 27.127 62.7139 26.4434C63.2744 25.7461 63.8213 25.3975 64.3545 25.3975C64.6689 25.3975 64.9287 25.4727 65.1338 25.623C65.3525 25.7598 65.5234 25.9443 65.6465 26.1768C65.7695 26.3955 65.8584 26.6484 65.9131 26.9355C65.9678 27.2227 65.9951 27.5029 65.9951 27.7764C65.9951 28.9932 65.9609 30.1074 65.8926 31.1191C65.8379 32.1309 65.7764 33.1494 65.708 34.1748Z" fill="white"/>
</g>
<defs>
<filter id="filter0_d_2_2336" x="0.615234" y="0.253906" width="92.6768" height="40.5664" filterUnits="userSpaceOnUse" color-interpolation-filters="sRGB">
<feFlood flood-opacity="0" result="BackgroundImageFix"/>
<feColorMatrix in="SourceAlpha" type="matrix" values="0 0 0 0 0 0 0 0 0 0 0 0 0 0 0 0 0 0 127 0" result="hardAlpha"/>
<feOffset/>
<feGaussianBlur stdDeviation="2"/>
<feComposite in2="hardAlpha" operator="out"/>
<feColorMatrix type="matrix" values="0 0 0 0 1 0 0 0 0 1 0 0 0 0 1 0 0 0 1 0"/>
<feBlend mode="normal" in2="BackgroundImageFix" result="effect1_dropShadow_2_2336"/>
<feBlend mode="normal" in="SourceGraphic" in2="effect1_dropShadow_2_2336" result="shape"/>
</filter>
</defs>
</svg>
