<svg width="86" height="33" viewBox="0 0 86 33" fill="none" xmlns="http://www.w3.org/2000/svg">
<path d="M54.5508 1.15625C54.5234 1.36133 54.4346 1.52539 54.2842 1.64844C54.1338 1.77148 53.9629 1.83301 53.7715 1.83301C53.7441 1.83301 53.6963 1.83301 53.6279 1.83301C53.5596 1.81934 53.4023 1.8125 53.1562 1.8125C52.8965 1.8125 52.5615 1.83984 52.1514 1.89453C51.7549 1.94922 51.3105 2.06543 50.8184 2.24316C50.3398 2.40723 49.834 2.65332 49.3008 2.98145C48.7812 3.30957 48.2686 3.75391 47.7627 4.31445C47.2568 4.86133 46.7783 5.54492 46.3271 6.36523C45.876 7.17187 45.4932 8.14941 45.1787 9.29785C45.0146 9.87207 44.8232 10.6992 44.6045 11.7793C44.3994 12.8457 44.1738 14.0488 43.9277 15.3887C43.6953 16.7285 43.4561 18.1572 43.21 19.6748C42.9775 21.1924 42.752 22.6826 42.5332 24.1455C42.3281 25.6084 42.1367 27.0029 41.959 28.3291C41.7812 29.6416 41.6445 30.7695 41.5488 31.7129C41.5215 31.8906 41.4395 32.0479 41.3027 32.1846C41.1797 32.335 41.0225 32.4102 40.8311 32.4102C40.6396 32.4102 40.4688 32.3623 40.3184 32.2666C40.1816 32.1709 40.0859 32.0273 40.0312 31.8359C39.8535 31.1797 39.5732 30.2705 39.1904 29.1084C38.8076 27.9463 38.3633 26.6406 37.8574 25.1914C37.3652 23.7285 36.8252 22.1768 36.2373 20.5361C35.6494 18.8955 35.0615 17.2754 34.4736 15.6758C33.8994 14.0625 33.3389 12.5244 32.792 11.0615C32.2588 9.58496 31.7871 8.28613 31.377 7.16504C31.3086 7.93066 31.1992 8.78516 31.0488 9.72852C30.9121 10.6582 30.7207 11.6631 30.4746 12.7432C30.2422 13.8096 29.9482 14.9443 29.5928 16.1475C29.2373 17.3369 28.8135 18.5742 28.3213 19.8594C27.5557 21.8281 26.6533 23.5098 25.6143 24.9043C24.5889 26.2988 23.5088 27.4609 22.374 28.3906C21.2393 29.3203 20.084 30.0586 18.9082 30.6055C17.7461 31.1387 16.6523 31.542 15.627 31.8154C14.6016 32.0889 13.6787 32.2598 12.8584 32.3281C12.0381 32.4102 11.4092 32.4512 10.9717 32.4512C9.46777 32.4512 8.08008 32.2529 6.80859 31.8564C5.55078 31.46 4.45703 30.8994 3.52734 30.1748C2.61133 29.4365 1.89355 28.5615 1.37402 27.5498C0.868164 26.5244 0.615234 25.3965 0.615234 24.166C0.615234 23.0586 0.861328 22.0264 1.35352 21.0693C1.85938 20.0986 2.5293 19.2578 3.36328 18.5469C4.21094 17.8359 5.1748 17.2754 6.25488 16.8652C7.34863 16.4551 8.4834 16.25 9.65918 16.25C10.6299 16.25 11.498 16.3457 12.2637 16.5371C13.043 16.7285 13.7266 16.9746 14.3145 17.2754C14.916 17.5625 15.4287 17.877 15.8525 18.2188C16.29 18.5605 16.6455 18.8887 16.9189 19.2031C17.2061 19.5039 17.418 19.7637 17.5547 19.9824C17.7051 20.2012 17.7939 20.3311 17.8213 20.3721C17.876 20.4814 17.9033 20.6045 17.9033 20.7412C17.9033 20.9326 17.8281 21.1104 17.6777 21.2744C17.541 21.4385 17.3564 21.5205 17.124 21.5205C16.8232 21.5205 16.5977 21.3838 16.4473 21.1104C16.4336 21.0693 16.2969 20.8779 16.0371 20.5361C15.791 20.1807 15.4014 19.7979 14.8682 19.3877C14.3486 18.9775 13.6719 18.6084 12.8379 18.2803C12.0039 17.9385 10.9922 17.7676 9.80273 17.7676C8.83203 17.7676 7.88184 17.9316 6.95215 18.2598C6.03613 18.5879 5.22266 19.0391 4.51172 19.6133C3.80078 20.1875 3.22656 20.8711 2.78906 21.6641C2.36523 22.4434 2.15332 23.291 2.15332 24.207C2.15332 25.2051 2.38574 26.1211 2.85059 26.9551C3.31543 27.7754 3.94434 28.4795 4.7373 29.0674C5.54395 29.6553 6.47363 30.1133 7.52637 30.4414C8.59277 30.7559 9.72754 30.9131 10.9307 30.9131C11.3955 30.9131 12.0107 30.8789 12.7764 30.8105C13.542 30.7422 14.3965 30.585 15.3398 30.3389C16.2969 30.0928 17.3018 29.7236 18.3545 29.2314C19.4072 28.7256 20.4463 28.042 21.4717 27.1807C22.4971 26.3193 23.4746 25.2461 24.4043 23.9609C25.3477 22.6758 26.1748 21.1172 26.8857 19.2852C27.624 17.3984 28.1982 15.6074 28.6084 13.9121C29.0322 12.2031 29.3467 10.665 29.5518 9.29785C29.7568 7.93066 29.8799 6.76855 29.9209 5.81152C29.9756 4.84082 30.0029 4.15039 30.0029 3.74023V3.33008C30.0029 3.11133 30.0713 2.92676 30.208 2.77637C30.3584 2.6123 30.5498 2.53027 30.7822 2.53027C31.124 2.53027 31.3633 2.70117 31.5 3.04297C31.541 3.13867 31.6572 3.45996 31.8486 4.00684C32.0537 4.55371 32.3135 5.26465 32.6279 6.13965C32.9561 7.00098 33.3252 7.99902 33.7354 9.13379C34.1592 10.2686 34.6035 11.4785 35.0684 12.7637C35.5332 14.0352 36.0117 15.3545 36.5039 16.7217C36.9961 18.0889 37.4746 19.4355 37.9395 20.7617C38.418 22.0879 38.8691 23.3662 39.293 24.5967C39.7168 25.8271 40.0996 26.9482 40.4414 27.96C40.5918 26.8662 40.7559 25.7109 40.9336 24.4941C41.1113 23.2637 41.2959 22.0264 41.4873 20.7822C41.6924 19.5244 41.8906 18.2939 42.082 17.0908C42.2871 15.8877 42.4854 14.7598 42.6768 13.707C42.8818 12.6543 43.0664 11.7109 43.2305 10.877C43.3945 10.043 43.5449 9.37305 43.6816 8.86719C43.9824 7.66406 44.4131 6.54297 44.9736 5.50391C45.5342 4.45117 46.2109 3.53516 47.0039 2.75586C47.8105 1.97656 48.7266 1.36816 49.752 0.930664C50.791 0.479492 51.9395 0.253906 53.1973 0.253906C53.6758 0.253906 54.0176 0.308594 54.2227 0.417969C54.4414 0.527344 54.5508 0.739258 54.5508 1.05371V1.15625ZM51.4951 15.9014C51.4951 16.4209 51.3105 16.8652 50.9414 17.2344C50.5859 17.5898 50.1484 17.7676 49.6289 17.7676C49.1094 17.7676 48.665 17.5898 48.2959 17.2344C47.9404 16.8652 47.7627 16.4209 47.7627 15.9014C47.7627 15.6416 47.8105 15.4023 47.9062 15.1836C48.002 14.9512 48.1318 14.7529 48.2959 14.5889C48.4736 14.4111 48.6719 14.2744 48.8906 14.1787C49.123 14.083 49.3691 14.0352 49.6289 14.0352C49.8887 14.0352 50.1279 14.083 50.3467 14.1787C50.5791 14.2744 50.7773 14.4111 50.9414 14.5889C51.1191 14.7529 51.2559 14.9512 51.3516 15.1836C51.4473 15.4023 51.4951 15.6416 51.4951 15.9014ZM48.1729 27.9189C48.1729 25.9502 48.2959 23.9883 48.542 22.0332C48.5693 21.8418 48.6514 21.6777 48.7881 21.541C48.9385 21.3906 49.1299 21.3154 49.3623 21.3154C49.5674 21.3154 49.7383 21.3975 49.875 21.5615C50.0117 21.7119 50.0801 21.8896 50.0801 22.0947C50.0801 22.1768 50.0596 22.4229 50.0186 22.833C49.9912 23.2432 49.9502 23.7354 49.8955 24.3096C49.8545 24.8701 49.8135 25.4717 49.7725 26.1143C49.7451 26.7432 49.7314 27.3242 49.7314 27.8574C49.7314 28.582 49.7998 29.1699 49.9365 29.6211C50.0869 30.0586 50.2715 30.4004 50.4902 30.6465C50.7227 30.8926 50.9619 31.0566 51.208 31.1387C51.4678 31.2207 51.7139 31.2617 51.9463 31.2617C52.3291 31.2617 52.7256 31.125 53.1357 30.8516C53.5459 30.5781 53.9629 30.1953 54.3867 29.7031C54.8242 29.2109 55.2617 28.623 55.6992 27.9395C56.1367 27.2422 56.5674 26.4697 56.9912 25.6221C57.0596 25.4854 57.1553 25.3828 57.2783 25.3145C57.4014 25.2324 57.5381 25.1914 57.6885 25.1914C57.9072 25.1914 58.085 25.2734 58.2217 25.4375C58.3721 25.6016 58.4473 25.7793 58.4473 25.9707C58.4473 26.1074 58.4199 26.2236 58.3652 26.3193C58.2012 26.6338 57.9961 27.0166 57.75 27.4678C57.5039 27.9189 57.2236 28.3838 56.9092 28.8623C56.5947 29.3408 56.2461 29.8193 55.8633 30.2979C55.4941 30.7627 55.0977 31.1865 54.6738 31.5693C54.25 31.9385 53.8057 32.2393 53.3408 32.4717C52.876 32.7041 52.4043 32.8203 51.9258 32.8203C51.3105 32.8203 50.7705 32.6904 50.3057 32.4307C49.8408 32.1709 49.4443 31.8223 49.1162 31.3848C48.8018 30.9473 48.5625 30.4346 48.3984 29.8467C48.248 29.2451 48.1729 28.6025 48.1729 27.9189ZM50.3467 15.9014C50.3467 15.71 50.2715 15.5459 50.1211 15.4092C49.9844 15.2588 49.8203 15.1836 49.6289 15.1836C49.4375 15.1836 49.2734 15.2588 49.1367 15.4092C49 15.5459 48.9316 15.71 48.9316 15.9014C48.9316 16.0928 49 16.2568 49.1367 16.3936C49.2734 16.5303 49.4375 16.5986 49.6289 16.5986C49.8203 16.5986 49.9844 16.5303 50.1211 16.3936C50.2715 16.2568 50.3467 16.0928 50.3467 15.9014ZM61.708 30.1748C61.9131 29.7646 62.1729 29.2588 62.4873 28.6572C62.8154 28.042 63.1504 27.4268 63.4922 26.8115C63.8477 26.1963 64.1895 25.6152 64.5176 25.0684C64.8594 24.5215 65.1465 24.1045 65.3789 23.8174C65.7754 23.3389 66.1855 22.9971 66.6094 22.792C67.0332 22.5869 67.4229 22.4844 67.7783 22.4844C68.1338 22.4844 68.4346 22.5596 68.6807 22.71C68.9404 22.8604 69.1523 23.0654 69.3164 23.3252C69.4805 23.5713 69.6035 23.8652 69.6855 24.207C69.7676 24.5352 69.8086 24.8906 69.8086 25.2734C69.8086 25.4922 69.7949 25.7793 69.7676 26.1348C69.7539 26.4902 69.7334 26.873 69.7061 27.2832C69.6924 27.6934 69.6719 28.1172 69.6445 28.5547C69.6309 28.9922 69.6172 29.4023 69.6035 29.7852C69.8086 29.375 70.041 28.9238 70.3008 28.4316C70.5605 27.9258 70.8203 27.4268 71.0801 26.9346C71.3535 26.4424 71.6133 25.9844 71.8594 25.5605C72.1055 25.123 72.3311 24.7676 72.5361 24.4941C73.124 23.6875 73.6709 23.1475 74.1768 22.874C74.6963 22.6006 75.1543 22.4639 75.5508 22.4639C76.0156 22.4639 76.3984 22.5527 76.6992 22.7305C77 22.8945 77.2324 23.1133 77.3965 23.3867C77.5742 23.6465 77.6973 23.9404 77.7656 24.2686C77.834 24.5967 77.8682 24.9111 77.8682 25.2119C77.8682 25.6768 77.834 26.1621 77.7656 26.668C77.6973 27.1738 77.6631 27.7754 77.6631 28.4727C77.6631 28.7598 77.6768 29.0469 77.7041 29.334C77.7314 29.6211 77.7861 29.874 77.8682 30.0928C77.9639 30.3115 78.1074 30.4893 78.2988 30.626C78.4902 30.7627 78.75 30.8311 79.0781 30.8311C79.4336 30.8311 79.7822 30.7422 80.124 30.5645C80.4658 30.373 80.7939 30.127 81.1084 29.8262C81.4229 29.5254 81.7168 29.1836 81.9902 28.8008C82.2773 28.418 82.5371 28.0352 82.7695 27.6523C83.002 27.2695 83.207 26.9072 83.3848 26.5654C83.5625 26.21 83.7061 25.9092 83.8154 25.6631C83.8838 25.5127 83.9795 25.3965 84.1025 25.3145C84.2256 25.2324 84.3623 25.1914 84.5127 25.1914C84.7451 25.1914 84.9297 25.2803 85.0664 25.458C85.2168 25.6221 85.292 25.7998 85.292 25.9912C85.292 26.0869 85.2715 26.1826 85.2305 26.2783C85.1758 26.3877 85.0664 26.6201 84.9023 26.9756C84.7383 27.3174 84.5195 27.7139 84.2461 28.165C83.9727 28.6025 83.6514 29.0674 83.2822 29.5596C82.9268 30.0518 82.5303 30.5098 82.0928 30.9336C81.6553 31.3438 81.1836 31.6855 80.6777 31.959C80.1719 32.2188 79.6387 32.3486 79.0781 32.3486C78.4766 32.3486 77.9844 32.2393 77.6016 32.0205C77.2324 31.8154 76.9316 31.5352 76.6992 31.1797C76.4805 30.8242 76.3301 30.4141 76.248 29.9492C76.166 29.4844 76.125 28.999 76.125 28.4932C76.125 27.8232 76.1592 27.208 76.2275 26.6475C76.2959 26.0732 76.3301 25.6289 76.3301 25.3145C76.3301 24.9727 76.2959 24.7129 76.2275 24.5352C76.1729 24.3574 76.0977 24.2344 76.002 24.166C75.9199 24.084 75.8379 24.043 75.7559 24.043C75.6738 24.0293 75.6123 24.0225 75.5713 24.0225C75.2432 24.0225 74.8945 24.207 74.5254 24.5762C74.1699 24.9316 73.8008 25.4102 73.418 26.0117C73.0352 26.6133 72.6387 27.2969 72.2285 28.0625C71.832 28.8281 71.4287 29.6074 71.0186 30.4004C70.7861 30.8379 70.5879 31.2002 70.4238 31.4873C70.2734 31.7744 70.123 32 69.9727 32.1641C69.8359 32.3281 69.6992 32.4443 69.5625 32.5127C69.4258 32.5811 69.2754 32.6152 69.1113 32.6152C68.7559 32.6152 68.4824 32.4922 68.291 32.2461C68.1133 32 68.0244 31.6787 68.0244 31.2822C68.0244 31.0771 68.0312 30.8037 68.0449 30.4619C68.0586 30.1201 68.0723 29.7441 68.0859 29.334C68.0996 28.9238 68.1201 28.5 68.1475 28.0625C68.1748 27.625 68.1953 27.208 68.209 26.8115C68.2227 26.4014 68.2363 26.0391 68.25 25.7246C68.2637 25.4102 68.2705 25.1709 68.2705 25.0068C68.2705 24.6514 68.209 24.3984 68.0859 24.248C67.9629 24.084 67.8193 24.002 67.6553 24.002C67.5049 24.002 67.334 24.0566 67.1426 24.166C66.9648 24.2754 66.7529 24.4873 66.5068 24.8018C66.3154 25.0479 66.0693 25.4102 65.7686 25.8887C65.4814 26.3535 65.1738 26.873 64.8457 27.4473C64.5176 28.0215 64.1895 28.6094 63.8613 29.2109C63.5469 29.8125 63.2734 30.3525 63.041 30.8311C62.7539 31.4053 62.4668 31.7949 62.1797 32C61.8926 32.2188 61.6123 32.3281 61.3389 32.3281C60.9424 32.3281 60.6484 32.2119 60.457 31.9795C60.2656 31.7334 60.1699 31.4121 60.1699 31.0156C60.1699 30.9746 60.1768 30.7285 60.1904 30.2773C60.2178 29.8262 60.2451 29.2793 60.2725 28.6367C60.2998 27.9805 60.3271 27.2832 60.3545 26.5449C60.3955 25.8066 60.4297 25.1162 60.457 24.4736C60.4707 24.1318 60.457 23.8174 60.416 23.5303C60.375 23.2432 60.3203 23.0723 60.252 23.0176C60.1426 23.0449 59.9238 23.2979 59.5957 23.7764C59.2812 24.2549 58.8779 25.0889 58.3857 26.2783C58.3174 26.4287 58.2148 26.5449 58.0781 26.627C57.9414 26.709 57.7979 26.75 57.6475 26.75C57.415 26.75 57.2305 26.6748 57.0938 26.5244C56.957 26.3604 56.8887 26.1758 56.8887 25.9707C56.8887 25.875 56.9092 25.7725 56.9502 25.6631C57.5654 24.2002 58.1533 23.127 58.7139 22.4434C59.2744 21.7461 59.8213 21.3975 60.3545 21.3975C60.6689 21.3975 60.9287 21.4727 61.1338 21.623C61.3525 21.7598 61.5234 21.9443 61.6465 22.1768C61.7695 22.3955 61.8584 22.6484 61.9131 22.9355C61.9678 23.2227 61.9951 23.5029 61.9951 23.7764C61.9951 24.9932 61.9609 26.1074 61.8926 27.1191C61.8379 28.1309 61.7764 29.1494 61.708 30.1748Z" fill="#13ADC7"/>
</svg>
